<svg fill="#000000" xmlns="http://www.w3.org/2000/svg"  viewBox="0 0 24 24" width="24px" height="24px"><path d="M 6 3 C 4.3550302 3 3 4.3550302 3 6 L 3 18 C 3 19.64497 4.3550302 21 6 21 L 18 21 C 19.64497 21 21 19.64497 21 18 L 21 6 C 21 4.3550302 19.64497 3 18 3 L 6 3 z M 6 5 L 18 5 C 18.56503 5 19 5.4349698 19 6 L 19 18 C 19 18.56503 18.56503 19 18 19 L 6 19 C 5.4349698 19 5 18.56503 5 18 L 5 6 C 5 5.4349698 5.4349698 5 6 5 z M 12.3125 6 L 12.115234 6.890625 C 10.460541 6.9409414 8.9954655 8.1220083 8.8261719 9.5761719 C 8.7601719 10.137172 8.7843125 12.026188 11.820312 12.742188 C 12.887312 12.994187 13.314813 13.572547 13.257812 14.060547 C 13.207813 14.495547 12.822641 15 11.806641 15 C 10.731641 15 9.3298594 14.020531 8.8808594 13.644531 L 7.5917969 15.173828 C 7.7418821 15.300823 8.7172228 16.0897 9.9492188 16.587891 L 9.6347656 18 L 11.683594 18 L 11.908203 16.992188 C 13.764358 16.949188 15.288099 15.763178 15.470703 14.191406 C 15.615703 12.947406 14.85425 11.401922 12.28125 10.794922 C 11.34625 10.574922 10.773531 10.084547 10.894531 9.5605469 C 10.992531 9.1365469 11.428656 8.8808594 12.222656 8.8808594 C 13.989656 8.8808594 14.948281 9.7969375 14.988281 9.8359375 L 16.408203 8.4277344 C 16.363043 8.3811171 15.555079 7.5851438 14.103516 7.1542969 L 14.361328 6 L 12.3125 6 z"/></svg>