<svg width="397" height="413" viewBox="0 0 397 413" fill="none" xmlns="http://www.w3.org/2000/svg">
  <g clip-path="url(#clip0_48_2339)">
  <path d="M90.1305 144.554L75.0825 154.432L231.8 393.573L246.848 383.695L90.1305 144.554Z" fill="#F2F1ED"/>
  <path d="M54.3052 54.5587L89.1215 107.686C89.7957 108.715 90.0339 109.97 89.7838 111.174C89.5336 112.379 88.8156 113.435 87.7876 114.11C86.7596 114.785 85.5059 115.023 84.3023 114.773C83.0986 114.522 82.0437 113.804 81.3694 112.775L41.344 51.6983C35.9111 51.2442 30.4503 52.1418 25.448 54.3111L69.0574 120.857C69.7312 121.885 69.9691 123.14 69.7188 124.344C69.4686 125.549 68.7506 126.604 67.7228 127.279C66.695 127.953 65.4416 128.192 64.2382 127.942C63.0347 127.692 61.9798 126.973 61.3054 125.945L17.6959 59.3996C13.7148 63.1272 10.7164 67.7823 8.96793 72.9503L48.9934 134.027C49.6672 135.056 49.9051 136.31 49.6548 137.515C49.4045 138.719 48.6865 139.774 47.6588 140.449C46.631 141.124 45.3776 141.362 44.1741 141.112C42.9707 140.862 41.9158 140.144 41.2414 139.115L6.42515 85.9878C5.53092 100.801 10.3567 118.359 20.9327 134.497C40.5887 164.491 72.6516 178.219 92.5471 165.159C112.443 152.1 112.637 117.198 92.9808 87.2039C82.4048 71.0654 68.237 59.64 54.3052 54.5587Z" fill="#F2F1ED"/>
  <path d="M157.6 111.839H139.604V397.827H157.6V111.839Z" fill="#F2F1ED"/>
  <path d="M148.33 130.395C172.123 130.395 191.411 101.317 191.411 65.4476C191.411 29.578 172.123 0.5 148.33 0.5C124.537 0.5 105.249 29.578 105.249 65.4476C105.249 101.317 124.537 130.395 148.33 130.395Z" fill="#F2F1ED"/>
  <path d="M148.33 118.886C167.906 118.886 183.776 94.9606 183.776 65.4477C183.776 35.9347 167.906 12.0098 148.33 12.0098C128.753 12.0098 112.883 35.9347 112.883 65.4477C112.883 94.9606 128.753 118.886 148.33 118.886Z" fill="#B3B2AF"/>
  <path d="M198.5 412.5C308.129 412.5 397 407.397 397 401.101C397 394.806 308.129 389.703 198.5 389.703C88.8715 389.703 0 394.806 0 401.101C0 407.397 88.8715 412.5 198.5 412.5Z" fill="#F2F1ED"/>
  <path d="M315.892 400.934C241.502 387.514 165.314 387.514 90.924 400.934C89.7424 401.148 88.5281 401.1 87.3669 400.793C86.2058 400.487 85.126 399.929 84.2038 399.159C83.2816 398.389 82.5395 397.426 82.0299 396.338C81.5202 395.249 81.2554 394.062 81.2542 392.86V290.854H325.562V392.86C325.561 394.062 325.296 395.249 324.786 396.338C324.276 397.426 323.534 398.389 322.612 399.159C321.69 399.929 320.61 400.487 319.449 400.793C318.288 401.1 317.074 401.148 315.892 400.934Z" fill="#F2F1ED"/>
  <path d="M303.203 215.537C297.562 215.532 291.96 216.47 286.628 218.313C278.851 201.43 266.423 187.118 250.804 177.056C235.185 166.994 217.023 161.6 198.448 161.506C179.873 161.412 161.657 166.623 145.937 176.526C130.217 186.43 117.646 200.615 109.699 217.418C101.873 215.221 93.6349 214.938 85.6774 216.594C77.7199 218.249 70.2765 221.795 63.9742 226.931C57.6719 232.067 52.6953 238.644 49.4635 246.108C46.2318 253.572 44.8396 261.703 45.4043 269.818C45.9689 277.933 48.4739 285.793 52.7081 292.736C56.9423 299.679 62.7818 305.502 69.7347 309.715C76.6875 313.927 84.5501 316.406 92.6601 316.941C100.77 317.477 108.89 316.054 116.336 312.793C125.285 326.441 137.508 337.627 151.889 345.331C166.27 353.034 182.35 357.008 198.66 356.891C214.971 356.773 230.992 352.568 245.261 344.658C259.529 336.749 271.59 325.387 280.342 311.612C287.18 315.066 294.711 316.926 302.369 317.052C310.027 317.177 317.615 315.565 324.562 312.337C331.509 309.108 337.635 304.347 342.48 298.41C347.326 292.473 350.765 285.515 352.539 278.057C354.314 270.6 354.378 262.837 352.726 255.352C351.074 247.867 347.75 240.853 343.003 234.837C338.256 228.821 332.209 223.959 325.316 220.617C318.423 217.274 310.863 215.537 303.203 215.537Z" fill="#F2F1ED"/>
  <path d="M100.886 259.199H99.7952C99.758 244.666 102.972 230.31 109.201 217.182L110.186 217.649C104.027 230.631 100.849 244.828 100.886 259.199Z" fill="#C24A54"/>
  <path d="M296.114 259.199H295.023C295.057 245.159 292.024 231.282 286.138 218.538L287.128 218.081C293.081 230.968 296.148 245.001 296.114 259.199Z" fill="#C24A54"/>
  <path d="M81.3856 338.321L81.1226 337.261C81.4304 337.185 112.426 329.566 157.851 325.785C199.776 322.296 262.928 321.455 325.695 337.262L325.429 338.32C262.816 322.553 199.802 323.391 157.964 326.872C112.621 330.644 81.6927 338.244 81.3856 338.321Z" fill="#C24A54"/>
  <path d="M81.3856 353.057L81.1226 351.997C81.4304 351.921 112.426 344.302 157.851 340.521C199.776 337.033 262.928 336.191 325.695 351.998L325.429 353.056C262.816 337.289 199.802 338.128 157.964 341.608C112.621 345.38 81.6927 352.981 81.3856 353.057Z" fill="#C24A54"/>
  <path d="M81.3856 367.793L81.1226 366.733C81.4304 366.657 112.426 359.038 157.851 355.258C199.776 351.769 262.928 350.927 325.695 366.734L325.429 367.792C262.816 352.025 199.802 352.864 157.964 356.344C112.621 360.116 81.6927 367.717 81.3856 367.793Z" fill="#C24A54"/>
  <path d="M282.081 287.664L268.867 283.168L281.552 218.369L272.831 217.575C264.328 224.105 253.003 226.665 238.476 224.716L261.732 259.893L249.874 268.271L212.045 222.859C210.34 220.812 209.407 218.232 209.406 215.567C209.406 213.096 210.209 210.692 211.694 208.718C213.178 206.744 215.264 205.307 217.636 204.623L258.032 192.978L305.337 198.268C312.488 209.18 312.768 216.769 301.881 218.959L282.081 287.664Z" fill="#331A1C"/>
  <path d="M268.557 312.873C267.191 312.786 265.865 312.379 264.686 311.683C263.507 310.987 262.509 310.023 261.772 308.868C261.035 307.714 260.581 306.402 260.446 305.039C260.311 303.676 260.5 302.3 260.996 301.023L267.565 284.118C270.901 277.791 275.481 278.583 280.888 284.118L283.531 291.876C283.749 292.515 283.835 293.191 283.785 293.864C283.735 294.537 283.549 295.193 283.239 295.793L276.836 308.182C276.06 309.684 274.864 310.927 273.394 311.76C271.924 312.593 270.243 312.98 268.557 312.873Z" fill="#331A1C"/>
  <path d="M251.48 290.735C250.114 290.648 248.788 290.24 247.609 289.545C246.43 288.849 245.432 287.885 244.695 286.73C243.958 285.576 243.504 284.264 243.369 282.901C243.234 281.538 243.423 280.162 243.919 278.885L250.488 261.979C253.824 255.653 258.404 256.445 263.812 261.979L266.454 269.738C266.672 270.377 266.758 271.053 266.708 271.726C266.658 272.399 266.472 273.055 266.163 273.654L259.76 286.044C258.983 287.545 257.787 288.789 256.317 289.622C254.847 290.455 253.166 290.841 251.48 290.735Z" fill="#331A1C"/>
  <path d="M259.882 131.087C268.056 131.087 274.681 124.456 274.681 116.276C274.681 108.096 268.056 101.465 259.882 101.465C251.709 101.465 245.083 108.096 245.083 116.276C245.083 124.456 251.709 131.087 259.882 131.087Z" fill="#FFB9B9"/>
  <path d="M282.874 137.171L262.525 147.75L258.296 128.707L272.303 119.979L282.874 137.171Z" fill="#FFB9B9"/>
  <path d="M307.451 200.912C287.146 194.775 268.723 191.594 255.39 196.416C259.985 183.477 251.503 163.718 242.176 143.518C246.2 138.253 252.617 136.214 259.882 135.319C267.831 141.096 273.374 137.388 277.588 128.443C286.779 128.073 295.636 131.331 304.28 136.906C297.523 158.566 298.739 179.895 307.451 200.912Z" fill="#C24A54"/>
  <path d="M255.125 199.59C251.919 201.481 248.96 204.667 246.14 208.583C241.375 205.663 237.181 202.339 233.878 198.386C231.565 195.583 229.989 192.246 229.291 188.679C228.593 185.112 228.795 181.427 229.88 177.958L238.911 148.583C239.661 146.143 241.119 143.982 243.098 142.372L244.29 141.403L256.182 163.884L244.29 186.101C245.798 190.148 250.242 194.822 255.125 199.59Z" fill="#C24A54"/>
  <path d="M259.219 221.986C258.141 222.478 256.963 222.712 255.779 222.67C254.594 222.628 253.436 222.31 252.396 221.743C251.356 221.175 250.461 220.373 249.784 219.4C249.107 218.427 248.665 217.31 248.494 216.136L246.528 202.669L253.399 198.967L262.12 210.392C262.816 211.304 263.298 212.362 263.53 213.487C263.762 214.612 263.738 215.774 263.459 216.888C263.18 218.002 262.654 219.039 261.92 219.922C261.186 220.804 260.263 221.51 259.219 221.986Z" fill="#FFB9B9"/>
  <path d="M274.814 115.628L272.287 115.703L265.278 105.766C256.296 106.695 248.937 110.601 242.709 116.583L242.077 112.369C241.475 108.352 242.434 104.256 244.758 100.924C247.081 97.5921 250.591 95.278 254.567 94.4576H254.567C256.655 94.0266 258.809 94.0213 260.9 94.4419C262.99 94.8625 264.974 95.7003 266.734 96.9055C268.494 98.1106 269.993 99.6583 271.142 101.456C272.29 103.254 273.065 105.265 273.42 107.369L274.814 115.628Z" fill="#331A1C"/>
  <path d="M246.395 208.588C245.904 207.509 245.67 206.33 245.712 205.145C245.754 203.96 246.072 202.801 246.639 201.76C247.206 200.718 248.007 199.823 248.979 199.146C249.952 198.468 251.068 198.026 252.241 197.854L265.696 195.887L269.396 202.764L257.98 211.491C257.069 212.188 256.011 212.671 254.888 212.903C253.764 213.135 252.602 213.111 251.489 212.832C250.376 212.553 249.34 212.026 248.458 211.292C247.576 210.557 246.871 209.633 246.395 208.588Z" fill="#FFB9B9"/>
  <path d="M310.015 196.338C297.213 197.333 283.235 201.328 268.603 206.996C268.421 202.648 266.846 198.475 264.111 195.094C277.4 191.59 289.46 187.479 296.88 181.076L292.388 147.221L302.166 136.113L303.852 136.993C305.253 137.722 306.485 138.737 307.469 139.973C308.452 141.209 309.165 142.637 309.561 144.167C313.69 160.239 315.524 175.639 314.263 190.131C314.426 191.505 314.085 192.892 313.303 194.033C312.522 195.175 311.354 195.994 310.015 196.338Z" fill="#C24A54"/>
  <path d="M52.2895 397.887C40.3836 405.34 28.4778 405.337 16.5719 397.878C16.195 397.646 15.8889 397.315 15.6869 396.92C15.4849 396.526 15.3946 396.084 15.426 395.642L19.141 347.308H49.189L53.4332 395.625C53.4698 396.071 53.3824 396.519 53.1805 396.918C52.9786 397.317 52.6702 397.653 52.2895 397.887Z" fill="#C24A54"/>
  <path d="M34.0263 353.322C42.4004 353.322 49.1889 350.874 49.1889 347.854C49.1889 344.835 42.4004 342.387 34.0263 342.387C25.6523 342.387 18.8638 344.835 18.8638 347.854C18.8638 350.874 25.6523 353.322 34.0263 353.322Z" fill="#C24A54"/>
  <path d="M45.911 346.009C38.0101 351.571 30.3615 351.571 22.9653 346.009V337.26H45.911V346.009Z" fill="#F2F1ED"/>
  <path d="M34.4382 341.635C40.7745 341.635 45.911 339.676 45.911 337.26C45.911 334.845 40.7745 332.886 34.4382 332.886C28.1019 332.886 22.9653 334.845 22.9653 337.26C22.9653 339.676 28.1019 341.635 34.4382 341.635Z" fill="#F2F1ED"/>
  <path d="M34.9845 337.26C35.588 337.26 36.0771 337.016 36.0771 336.714C36.0771 336.412 35.588 336.167 34.9845 336.167C34.381 336.167 33.8918 336.412 33.8918 336.714C33.8918 337.016 34.381 337.26 34.9845 337.26Z" fill="#F2F1ED"/>
  <path d="M40.1439 337.26C40.7474 337.26 41.2366 337.016 41.2366 336.714C41.2366 336.412 40.7474 336.167 40.1439 336.167C39.5405 336.167 39.0513 336.412 39.0513 336.714C39.0513 337.016 39.5405 337.26 40.1439 337.26Z" fill="#F2F1ED"/>
  <path d="M37.5641 338.551C38.1675 338.551 38.6567 338.307 38.6567 338.005C38.6567 337.703 38.1675 337.458 37.5641 337.458C36.9606 337.458 36.4714 337.703 36.4714 338.005C36.4714 338.307 36.9606 338.551 37.5641 338.551Z" fill="#F2F1ED"/>
  <path d="M27.2452 338.551C27.8487 338.551 28.3379 338.307 28.3379 338.005C28.3379 337.703 27.8487 337.458 27.2452 337.458C26.6418 337.458 26.1526 337.703 26.1526 338.005C26.1526 338.307 26.6418 338.551 27.2452 338.551Z" fill="#F2F1ED"/>
  <path d="M29.8251 337.26C30.4285 337.26 30.9177 337.016 30.9177 336.714C30.9177 336.412 30.4285 336.167 29.8251 336.167C29.2216 336.167 28.7324 336.412 28.7324 336.714C28.7324 337.016 29.2216 337.26 29.8251 337.26Z" fill="#F2F1ED"/>
  <path d="M32.4047 339.197C33.0081 339.197 33.4973 338.952 33.4973 338.65C33.4973 338.348 33.0081 338.103 32.4047 338.103C31.8012 338.103 31.312 338.348 31.312 338.65C31.312 338.952 31.8012 339.197 32.4047 339.197Z" fill="#F2F1ED"/>
  <path d="M382.214 397.887C370.308 405.34 358.402 405.337 346.496 397.878C346.119 397.646 345.813 397.315 345.611 396.92C345.409 396.526 345.319 396.084 345.35 395.642L349.065 347.308H379.113L383.357 395.625C383.394 396.071 383.307 396.519 383.105 396.918C382.903 397.317 382.594 397.653 382.214 397.887Z" fill="#C24A54"/>
  <path d="M363.951 353.322C372.325 353.322 379.113 350.874 379.113 347.854C379.113 344.835 372.325 342.387 363.951 342.387C355.577 342.387 348.788 344.835 348.788 347.854C348.788 350.874 355.577 353.322 363.951 353.322Z" fill="#C24A54"/>
  <path d="M375.835 346.009C367.934 351.571 360.286 351.571 352.89 346.009V337.26H375.835V346.009Z" fill="#F2F1ED"/>
  <path d="M364.363 341.635C370.699 341.635 375.835 339.676 375.835 337.26C375.835 334.845 370.699 332.886 364.363 332.886C358.026 332.886 352.89 334.845 352.89 337.26C352.89 339.676 358.026 341.635 364.363 341.635Z" fill="#F2F1ED"/>
  <path d="M364.909 337.26C365.513 337.26 366.002 337.016 366.002 336.714C366.002 336.412 365.513 336.167 364.909 336.167C364.306 336.167 363.816 336.412 363.816 336.714C363.816 337.016 364.306 337.26 364.909 337.26Z" fill="#F2F1ED"/>
  <path d="M370.068 337.26C370.672 337.26 371.161 337.016 371.161 336.714C371.161 336.412 370.672 336.167 370.068 336.167C369.465 336.167 368.976 336.412 368.976 336.714C368.976 337.016 369.465 337.26 370.068 337.26Z" fill="#F2F1ED"/>
  <path d="M367.489 338.551C368.092 338.551 368.581 338.307 368.581 338.005C368.581 337.703 368.092 337.458 367.489 337.458C366.885 337.458 366.396 337.703 366.396 338.005C366.396 338.307 366.885 338.551 367.489 338.551Z" fill="#F2F1ED"/>
  <path d="M357.17 338.551C357.773 338.551 358.262 338.307 358.262 338.005C358.262 337.703 357.773 337.458 357.17 337.458C356.566 337.458 356.077 337.703 356.077 338.005C356.077 338.307 356.566 338.551 357.17 338.551Z" fill="#F2F1ED"/>
  <path d="M359.749 337.26C360.353 337.26 360.842 337.016 360.842 336.714C360.842 336.412 360.353 336.167 359.749 336.167C359.146 336.167 358.657 336.412 358.657 336.714C358.657 337.016 359.146 337.26 359.749 337.26Z" fill="#F2F1ED"/>
  <path d="M362.329 339.197C362.933 339.197 363.422 338.952 363.422 338.65C363.422 338.348 362.933 338.103 362.329 338.103C361.726 338.103 361.237 338.348 361.237 338.65C361.237 338.952 361.726 339.197 362.329 339.197Z" fill="#F2F1ED"/>
  </g>
  <defs>
  <clipPath id="clip0_48_2339">
  <rect width="397" height="412" fill="white" transform="translate(0 0.5)"/>
  </clipPath>
  </defs>
</svg>
