<svg width="24" height="20" viewBox="0 0 24 20" fill="none" xmlns="http://www.w3.org/2000/svg">
<path d="M18 2.50001V2.50001C19.6569 2.50001 21 3.84315 21 5.50001L21 6.78572C21 6.98521 21 7.08495 20.9719 7.16514C20.9217 7.30876 20.8088 7.42169 20.6651 7.47194C20.585 7.5 20.4852 7.5 20.2857 7.5L15 7.5M18 2.50001V2.50001C16.3431 2.50001 15 3.84315 15 5.50001L15 7.5M18 2.50001L7 2.50001C5.11438 2.50001 4.17157 2.50001 3.58579 3.08579C3 3.67158 3 4.61439 3 6.50001L3 17.5L6 16.6667L9 17.5L12 16.6667L15 17.5L15 7.5" stroke="#803137" stroke-width="2"/>
<path d="M7 5.83337L11 5.83337" stroke="#803137" stroke-width="2" stroke-linecap="round"/>
<path d="M8 9.16663H7" stroke="#803137" stroke-width="2" stroke-linecap="round"/>
<path d="M7 12.5L10 12.5" stroke="#803137" stroke-width="2" stroke-linecap="round"/>
</svg>
