<svg width="15" class="file" height="18" viewBox="0 0 15 18" fill="none" xmlns="http://www.w3.org/2000/svg">
<path d="M8.26362 1H4.55556C2.87945 1 2.0414 1 1.5207 1.5207C1 2.0414 1 2.87945 1 4.55556V13.4444C1 15.1205 1 15.9586 1.5207 16.4793C2.0414 17 2.87945 17 4.55556 17H9.88889C11.565 17 12.403 17 12.9237 16.4793C13.4444 15.9586 13.4444 15.1205 13.4444 13.4444V6.18082C13.4444 5.81749 13.4444 5.63582 13.3768 5.47247C13.3091 5.30912 13.1807 5.18066 12.9237 4.92375L9.5207 1.5207C9.26378 1.26378 9.13533 1.13533 8.97197 1.06766C8.80862 1 8.62695 1 8.26362 1Z" stroke="#803137" stroke-width="2"/>
<path d="M8.11133 1V4.55556C8.11133 5.39361 8.11133 5.81263 8.37168 6.07298C8.63203 6.33333 9.05106 6.33333 9.88911 6.33333H13.4447" stroke="#803137" stroke-width="2"/>
</svg>
