<svg width="32" class="icon-white" height="32" viewBox="0 0 32 32" fill="none" xmlns="http://www.w3.org/2000/svg">
<path fill-rule="evenodd" clip-rule="evenodd" d="M17.3316 9.335L20 6.6666C21.1768 5.48986 21.7651 4.90148 22.4873 4.83643C22.6066 4.82568 22.7267 4.82568 22.8461 4.83643C23.5682 4.90148 24.1566 5.48986 25.3334 6.66661C26.5101 7.84336 27.0985 8.43174 27.1635 9.15384C27.1743 9.27322 27.1743 9.39333 27.1635 9.51271C27.0985 10.2348 26.5101 10.8232 25.3334 11.9999L25.3334 11.9999L22.6944 14.6389C20.474 13.358 18.6288 11.5267 17.3316 9.335ZM15.8773 10.7893L6.18973 20.4769C5.76467 20.902 5.55214 21.1145 5.4124 21.3756C5.27267 21.6367 5.21372 21.9314 5.09583 22.5209L4.1471 27.2645C4.08058 27.5971 4.04732 27.7634 4.14193 27.858C4.23654 27.9526 4.40284 27.9194 4.73545 27.8529L9.4791 26.9041L9.47912 26.9041C10.0686 26.7862 10.3633 26.7273 10.6244 26.5876C10.8855 26.4478 11.098 26.2353 11.5231 25.8102L21.2364 16.0969C19.0668 14.7518 17.236 12.9337 15.8773 10.7893Z" fill="white"/>
</svg>
