<svg class="logo" data-name="Layer 1" xmlns="http://www.w3.org/2000/svg" viewBox="0 0 640 640"><defs><style>.cls-1{fill:#9b0034;}</style></defs><title>Waitist</title><path id="logo" d="M88,448a31.91,31.91,0,0,0,24-10.82A32,32,0,0,0,168,416V192H152V416a16,16,0,0,1-32,0V192H104V416a16,16,0,0,1-32,0V192H56V416A32,32,0,0,0,88,448Z"/><path class="cls-1" d="M200,384h32v64h16V224a32,32,0,0,0-64,0V448h16Zm16-176a16,16,0,0,1,16,16V368H200V224A16,16,0,0,1,216,208Z"/><path class="cls-1" d="M509.18,440A31.91,31.91,0,0,0,520,416V400a32,32,0,0,0-32-32,16,16,0,0,1-16-16V224a16,16,0,0,1,16-16h48V448h16V208h32V192H488a32,32,0,0,0-32,32V352a32,32,0,0,0,32,32,16,16,0,0,1,16,16v16a16,16,0,0,1-16,16H456v16h32A31.9,31.9,0,0,0,509.18,440Z"/><path class="cls-1" d="M280,223V432a16,16,0,0,0-16,16h48a16,16,0,0,0-16-16V223a31.8,31.8,0,0,0,13.18-7,5.18,5.18,0,0,1-5.18-5.18V189.18a5.18,5.18,0,0,1,5.18-5.18H320c-.2-19.84-1.1-38.72-2.62-56H258.66C257,147.39,256,168.77,256,191.26A32.76,32.76,0,0,0,280,223Z"/><path class="cls-1" d="M400,189.18v21.64a5.18,5.18,0,0,1-5.18,5.18A31.8,31.8,0,0,0,408,223V432a16,16,0,0,0-16,16h48a16,16,0,0,0-16-16V223a32.76,32.76,0,0,0,24-31.7c0-22.49-1-43.87-2.66-63.26H386.66c-1.52,17.28-2.42,36.16-2.62,56h10.78A5.18,5.18,0,0,1,400,189.18Z"/><polygon class="cls-1" points="360 448 360 208 392 208 392 192 312 192 312 208 344 208 344 448 360 448"/><path class="cls-1" d="M608,464H32a8,8,0,0,0,0,16c59.22,0,84.34-3.12,112,16l1.32.94c.44.3.86.62,1.28.94a63.81,63.81,0,0,1,9.86,9c.28.32.56.64.8.94a41.11,41.11,0,0,1,3.1,4.2H479.64c.34-.52.68-1,1.06-1.54s.6-.84.92-1.26.72-.92,1.12-1.4c.24-.3.52-.62.8-.94q1-1.17,2.16-2.34c.48-.48,1-1,1.48-1.44s1-.9,1.46-1.34c1.48-1.3,3.06-2.58,4.76-3.86.42-.32.84-.64,1.28-.94L496,496c27.66-19.12,52.78-16,112-16a8,8,0,0,0,0-16Z"/></svg>
